<?xml version="1.0" encoding="UTF-8"?>
<svg id="Capa_2" data-name="Capa 2" xmlns="http://www.w3.org/2000/svg" viewBox="0 0 511.73 512">
  <defs>
    <style>
      .cls-1 {
        fill: #000;
        stroke-width: 0px;
      }
    </style>
  </defs>
  <g id="Capa_1-2" data-name="Capa 1">
    <path class="cls-1" d="M.82,266.24l-.82-18.47c3.29-14.29,12.71-24.47,22.85-34.54,63.55-63.12,126.94-126.39,190.17-189.81,10.48-10.51,21.01-20.39,36.17-23.42h13.23c14.97,2.99,25.42,12.68,35.78,23.07,63.42,63.64,126.98,127.14,190.72,190.46,10.57,10.51,20.19,21.2,22.82,36.47v12c-.29.76-.71,1.5-.87,2.28-4.63,23.2-23,38.51-46.59,38.79-2.42.03-4.84,0-7.54,0,0,2.77,0,4.76,0,6.74-.01,49.46.13,98.93-.12,148.39-.12,23.45-16.1,44.24-38.49,51.18-3.14.97-6.35,1.75-9.52,2.61h-91.28c-8.87-3.3-12.02-9.8-11.96-19.06.24-38.12.13-76.24.09-114.36-.02-17.01-10.36-27.26-27.48-27.32-14.18-.05-28.35-.02-42.53,0-18.52.02-28.51,9.91-28.52,28.28-.02,37.79-.14,75.58.09,113.37.06,9.24-3.03,15.79-11.91,19.1h-92.17c-.42-.24-.83-.65-1.27-.71-23.93-2.96-47.53-25.15-47.09-57.58.66-48.14.17-96.3.17-144.45,0-1.93,0-3.87,0-6.21-3.5,0-6.31.12-9.11-.02-18.35-.94-32.02-9.53-40.63-25.66-1.85-3.47-2.96-7.33-4.17-11.14Z"/>
  </g>
</svg>